<?xml version="1.0" encoding="utf-8"?>
<!-- Generator: Adobe Illustrator 24.2.0, SVG Export Plug-In . SVG Version: 6.00 Build 0)  -->
<svg version="1.1" id="Layer_1" xmlns="http://www.w3.org/2000/svg" xmlns:xlink="http://www.w3.org/1999/xlink" x="0px" y="0px"
	 viewBox="0 0 618.6 531.1" style="enable-background:new 0 0 618.6 531.1;" xml:space="preserve">
<style type="text/css">
	.st0{opacity:0.4;fill:#1B73EE;}
	.st1{opacity:0.25;fill:#1B73EE;}
</style>
<path class="st0" d="M16,0H0v25.6L16,0z"/>
<path class="st0" d="M31.1,0H17.5L0,27.9v21.7L31.1,0z"/>
<path class="st0" d="M46.2,0H32.9L0,52.4v21.2L46.2,0z"/>
<path class="st0" d="M61.2,0H48.3L0,77v20.6L61.2,0z"/>
<path class="st0" d="M76.3,0H63.7L0,101.5v20.2L76.3,0z"/>
<path class="st0" d="M91.3,0H79.1L0,126v19.6L91.3,0z"/>
<path class="st0" d="M106.4,0h-12L0,150.6v19.1L106.4,0z"/>
<path class="st0" d="M121.5,0h-11.6L0,175.2v18.5L121.5,0z"/>
<path class="st0" d="M136.6,0h-11.3L0,199.6v18.1L136.6,0z"/>
<path class="st0" d="M151.6,0h-11L0,224.2v17.5L151.6,0z"/>
<path class="st0" d="M166.7,0H156L0,248.8v17L166.7,0z"/>
<path class="st0" d="M181.7,0h-10.3L0,273.3v16.5L181.7,0z"/>
<path class="st0" d="M196.8,0h-10L0,297.8v16L196.8,0z"/>
<path class="st0" d="M211.9,0h-9.7L0,322.4v15.4L211.9,0z"/>
<path class="st0" d="M227,0h-9.4L0,346.9v14.9L227,0z"/>
<path class="st0" d="M242,0h-9L0,371.5v14.4L242,0z"/>
<path class="st0" d="M257.1,0h-8.7L0,396v13.9L257.1,0z"/>
<path class="st0" d="M272.1,0h-8.4L0,420.5v13.4L272.1,0z"/>
<path class="st0" d="M287.2,0h-8L0,445.1v12.8L287.2,0z"/>
<path class="st0" d="M302.3,0h-7.7L0,469.6v12.3L302.3,0z"/>
<path class="st0" d="M317.3,0h-7.4L0,494.1v11.8L317.3,0z"/>
<path class="st0" d="M332.4,0h-7.1L0,518.7V530L332.4,0z"/>
<path class="st1" d="M14.3,531.1L347.4,0h-6.7L7.6,531.1"/>
<path class="st1" d="M29.4,531.1L362.5,0h-6.4L23,531.1"/>
<path class="st1" d="M44.5,531.1L377.6,0h-6.1L38.4,531.1"/>
<path class="st1" d="M59.5,531.1L392.7,0h-5.8L53.8,531.1"/>
<path class="st1" d="M74.6,531.1L407.7,0h-5.4L69.2,531.1"/>
<path class="st1" d="M89.6,531.1L422.8,0h-5.1L84.5,531.1"/>
<path class="st1" d="M104.7,531.1L437.8,0h-4.8L99.9,531.1"/>
<path class="st1" d="M119.8,531.1L452.9,0h-4.5L115.3,531.1"/>
<path class="st1" d="M134.9,531.1L468,0h-4.1L130.7,531.1"/>
<path class="st1" d="M149.9,531.1L483,0h-3.8L146.1,531.1"/>
<path class="st1" d="M165,531.1L498.1,0h-3.5L161.5,531.1"/>
<path class="st1" d="M180,531.1L513.2,0H510L176.9,531.1"/>
<path class="st1" d="M195.1,531.1L528.2,0h-2.8L192.3,531.1"/>
<path class="st1" d="M210.2,531.1L543.3,0h-2.5L207.7,531.1"/>
<path class="st1" d="M225.3,531.1L558.4,0h-2.2L223.1,531.1"/>
<path class="st1" d="M240.3,531.1L573.4,0h-1.9L238.5,531.1"/>
<path class="st1" d="M255.4,531.1L588.5,0H587L253.9,531.1"/>
<path class="st1" d="M270.4,531.1L603.6,0h-1.2L269.3,531.1"/>
<path class="st1" d="M285.5,531.1L618.6,0h-0.9L284.6,531.1"/>
</svg>
